<svg width="50" height="51" viewBox="0 0 50 51" fill="none" xmlns="http://www.w3.org/2000/svg">
<path d="M21.1934 42V50" stroke="#4A90E2" stroke-width="2" stroke-linecap="round"/>
<path d="M30.1934 50H11.1934" stroke="#4A90E2" stroke-width="2" stroke-linecap="round"/>
<path d="M36.9878 34.2253L37.6949 34.9324L36.9878 34.2253ZM5.53765 34.6618L4.8374 35.3756L4.8374 35.3757L5.53765 34.6618ZM9.9591 31.0378C10.3238 30.6231 10.2833 29.9912 9.86858 29.6265C9.45386 29.2618 8.82199 29.3023 8.45726 29.717L9.9591 31.0378ZM38.0804 2.31486C37.699 1.91538 37.066 1.90069 36.6666 2.28205C36.2671 2.66341 36.2524 3.2964 36.6338 3.69588L38.0804 2.31486ZM36.2807 33.5182C27.9788 41.8201 14.5675 42.1184 6.23791 33.9479L4.8374 35.3757C13.9824 44.346 28.6496 43.9777 37.6949 34.9324L36.2807 33.5182ZM6.23791 33.9479C6.53848 34.2427 6.54196 34.5967 6.53567 34.7136C6.5283 34.8505 6.49387 34.9527 6.48033 34.9909C6.45016 35.0758 6.41524 35.1352 6.40889 35.1462C6.38863 35.1812 6.37387 35.2005 6.3813 35.1902C6.39019 35.1779 6.41444 35.146 6.46039 35.0887C6.54881 34.9785 6.68315 34.8169 6.85273 34.6164C7.19005 34.2174 7.64704 33.6875 8.10849 33.1559C8.56929 32.625 9.03199 32.0954 9.37965 31.6984C9.55344 31.4999 9.69838 31.3347 9.79984 31.2191C9.85057 31.1613 9.89043 31.1159 9.91758 31.085C9.93116 31.0696 9.94156 31.0578 9.94855 31.0498C9.95205 31.0458 9.9547 31.0428 9.95646 31.0408C9.95735 31.0398 9.95801 31.039 9.95845 31.0385C9.95867 31.0383 9.95883 31.0381 9.95894 31.038C9.959 31.0379 9.95903 31.0379 9.95906 31.0378C9.95908 31.0378 9.9591 31.0378 9.20818 30.3774C8.45726 29.717 8.45725 29.717 8.45721 29.7171C8.45718 29.7171 8.45714 29.7172 8.45708 29.7172C8.45696 29.7174 8.45678 29.7176 8.45655 29.7178C8.45609 29.7183 8.4554 29.7191 8.4545 29.7202C8.45269 29.7222 8.44999 29.7253 8.44645 29.7293C8.43936 29.7374 8.42886 29.7493 8.41518 29.7649C8.38783 29.796 8.34775 29.8416 8.29679 29.8997C8.19487 30.0158 8.04938 30.1817 7.87497 30.3809C7.52624 30.7791 7.0615 31.311 6.59813 31.8448C6.13542 32.3779 5.67151 32.9158 5.32551 33.325C5.15343 33.5285 5.0055 33.7061 4.90034 33.8372C4.84949 33.9006 4.79912 33.9649 4.75923 34.0202C4.74226 34.0437 4.70956 34.0897 4.67828 34.1437C4.66642 34.1642 4.62772 34.2312 4.59556 34.3218C4.58101 34.3628 4.54603 34.4673 4.53856 34.606C4.53217 34.7248 4.53601 35.08 4.8374 35.3756L6.23791 33.9479ZM36.6338 3.69588C44.6139 12.0553 44.4963 25.3026 36.2807 33.5182L37.6949 34.9324C46.6805 25.9467 46.8091 11.4583 38.0804 2.31486L36.6338 3.69588Z" fill="#4A90E2"/>
<circle cx="22.1934" cy="19" r="17" stroke="#4A90E2" stroke-width="2" stroke-linecap="round"/>
<path d="M27.5086 34.2763L6.62092 12.0163" stroke="#4A90E2" stroke-width="2" stroke-linejoin="round"/>
<path d="M36.4036 27.3326L15.1426 4.2064" stroke="#4A90E2" stroke-width="2" stroke-linejoin="round"/>
<path d="M9.17948 29.1846C9.05446 28.8807 6.18754 21.6787 15.5061 12.7636C24.8187 3.85419 31.8869 7.03686 32.185 7.1752" stroke="#4A90E2" stroke-width="2" stroke-linecap="round"/>
<path d="M10.433 30.3538C10.7474 30.5093 18.1993 34.093 27.5178 25.1779C36.8304 16.2685 33.5798 8.6654 33.4384 8.3444" stroke="#4A90E2" stroke-width="2" stroke-linecap="round"/>
</svg>
