<svg width="50" height="51" viewBox="0 0 50 51" fill="none" xmlns="http://www.w3.org/2000/svg">
<path d="M31 49L43 45V12L31 15L15 12L3 15V48L15 46L31 49Z" stroke="#4A90E2" stroke-width="2"/>
<path d="M31 15V49" stroke="#4A90E2" stroke-width="2"/>
<path d="M14 12L14 47" stroke="#4A90E2" stroke-width="2"/>
<path d="M16.4143 23.3291L17.1221 23.9926L17.8067 23.3051C17.898 23.2135 18.0025 23.1093 18.1045 23.0077L18.1206 22.9917C18.2161 22.8966 18.3089 22.8042 18.3822 22.7305L18.3822 22.7305L18.3859 22.7268C18.6327 22.4764 19.806 21.2673 20.924 19.6914C22.0053 18.1674 23.1962 16.082 23.1962 14.1194C23.1962 10.7477 20.4659 8 17.0981 8C13.7303 8 11 10.7477 11 14.1194C11 15.1193 11.3122 16.1324 11.7304 17.0543C12.1526 17.9851 12.7114 18.8848 13.2698 19.6742C14.386 21.2522 15.5577 22.4692 15.8061 22.7225C15.8269 22.7438 15.8501 22.7676 15.8753 22.7933C16.0198 22.9413 16.2276 23.1542 16.4143 23.3291Z" fill="#4A90E2" stroke="white" stroke-width="2"/>
<path d="M19.1984 14.0997C19.1984 15.2737 18.2495 16.2247 17.0816 16.2247C15.9122 16.2247 14.9648 15.2737 14.9648 14.0997C14.9648 12.929 15.9122 11.9749 17.0816 11.9749C18.2479 11.9749 19.1984 12.929 19.1984 14.0997Z" fill="white"/>
<path d="M38.4143 37.3291L39.1221 37.9926L39.8067 37.3051C39.898 37.2135 40.0025 37.1093 40.1045 37.0077L40.1206 36.9917C40.2161 36.8966 40.3089 36.8042 40.3822 36.7305L40.3822 36.7305L40.3859 36.7268C40.6327 36.4764 41.806 35.2673 42.924 33.6914C44.0053 32.1674 45.1962 30.082 45.1962 28.1194C45.1962 24.7477 42.4659 22 39.0981 22C35.7303 22 33 24.7477 33 28.1194C33 29.1193 33.3122 30.1324 33.7304 31.0543C34.1526 31.9851 34.7114 32.8848 35.2698 33.6742C36.386 35.2522 37.5577 36.4692 37.8061 36.7225C37.8269 36.7438 37.8501 36.7676 37.8753 36.7933C38.0198 36.9413 38.2276 37.1542 38.4143 37.3291Z" fill="#4A90E2" stroke="white" stroke-width="2"/>
<path d="M41.1984 28.0997C41.1984 29.2737 40.2495 30.2247 39.0816 30.2247C37.9122 30.2247 36.9648 29.2737 36.9648 28.0997C36.9648 26.929 37.9122 25.9749 39.0816 25.9749C40.2479 25.9749 41.1984 26.929 41.1984 28.0997Z" fill="white"/>
</svg>
